<?xml version="1.0" encoding="utf-8"?>
<!-- Generator: Adobe Illustrator 21.0.0, SVG Export Plug-In . SVG Version: 6.00 Build 0)  -->
<svg version="1.1" xmlns="http://www.w3.org/2000/svg" xmlns:xlink="http://www.w3.org/1999/xlink" x="0px" y="0px"
	 viewBox="0 0 34 34" style="enable-background:new 0 0 34 34;" xml:space="preserve">
<style type="text/css">
	.st0{fill:#FFFFFF;}
	.st1{display:none;fill:#FFFFFF;stroke:#00C678;stroke-miterlimit:10;}
	.st2{display:none;fill:none;stroke:#00C678;stroke-miterlimit:10;}
	.st3{display:none;}
	.st4{display:inline;fill:#FFFFFF;stroke:#00C678;stroke-width:0.9269;stroke-miterlimit:10;}
	.st5{display:inline;}
	.st6{fill:#AEAEAE;}
	.st7{fill:#00995D;}
	.st8{display:inline;fill:#00995D;}
	.st9{display:inline;fill:#00C678;}
	.st10{display:inline;fill:#FFFFFF;}
	.st11{display:inline;fill:#FFFFFF;stroke:#00C678;stroke-miterlimit:10;}
	.st12{display:inline;fill:#FFFFFF;stroke:#00995D;stroke-miterlimit:10;}
</style>
<g id="Слой_2__x28_копия_x29_">
	<rect x="-114.5" y="-61.5" class="st0" width="301" height="342.5"/>
	<circle class="st1" cx="17" cy="17" r="16"/>
	
		<image style="display:none;overflow:visible;" width="75" height="65" xlink:href="../photo_2018-02-07_14-57-49.jpg"  transform="matrix(0.96 0 0 0.96 -22 -18)">
	</image>
	<path class="st2" d="M21.5,19.5c0.8-1.1,4.4,2.4,4,3c-1.5,2.5-4,4-7,2C16,22.8,11.8,19.6,9,15c-1.4-2.3,0.2-5,1.2-6.2
		c0.2-0.2,0.4-0.3,0.6-0.2c0.5,0.2,2,1.3,3.6,2.9c1,1-5,2,0,7C17.5,21.5,18.5,23.5,21.5,19.5z"/>
	<g class="st3">
		<path class="st4" d="M9.8,10.7l1.9-1.8c0.4-0.5,1.1-0.5,1.5,0l2.7,2.7c0.5,0.4,0.5,1.1,0,1.5l-1.6,1.7c0.7,1,1.6,2,2.6,3.1
			c1,1,2,1.9,3.1,2.6l1.7-1.6c0.4-0.5,1.1-0.5,1.5,0l2.7,2.7c0.5,0.4,0.5,1.1,0,1.5l-1.8,1.8v0.1l0,0c-1.6,1.5-6.1-0.3-9.9-4.2
			S8.3,12.3,9.8,10.7L9.8,10.7z"/>
	</g>
</g>
<g id="phone" class="st3">
	<g class="st5">
		<circle class="st0" cx="17" cy="17" r="16"/>
		<path class="st6" d="M17,33.5C7.9,33.5,0.5,26.1,0.5,17S7.9,0.5,17,0.5S33.5,7.9,33.5,17S26.1,33.5,17,33.5z M17,1.5
			C8.5,1.5,1.5,8.5,1.5,17s7,15.5,15.5,15.5s15.5-7,15.5-15.5S25.5,1.5,17,1.5z"/>
	</g>
	<g class="st5">
		<path class="st0" d="M24.4,24.2C24,24.7,23.4,25,22.8,25c-0.6,0-1.4-0.1-2-0.3c-2.5-0.6-5-2.2-7.2-4.3c-2.2-2.2-3.7-4.7-4.3-7.2
			c-0.1-0.6-0.2-1.3-0.3-2c0-0.6,0.3-1.2,0.8-1.5L12,8.2c0.6-0.4,1.3-0.2,1.6,0.4l1.8,3.5c0.3,0.5,0.1,1.1-0.3,1.4l-1.6,1.3
			c0.6,1.2,1.3,2.2,2.4,3.3c1.1,1.1,2,1.7,3.3,2.4l1.3-1.6c0.3-0.4,0.9-0.6,1.4-0.3l3.5,1.8c0.6,0.3,0.8,1.1,0.4,1.6L24.4,24.2z"/>
		<path class="st6" d="M22.9,25.5c0,0-0.1,0-0.1,0c-0.3,0-1.3-0.1-2.1-0.3c-2.6-0.7-5.2-2.3-7.4-4.5c-2.2-2.2-3.8-4.8-4.5-7.4
			c-0.1-0.6-0.2-1.3-0.3-2c0-0.8,0.3-1.5,1-2l2.2-1.5c0.4-0.3,0.9-0.3,1.3-0.2c0.4,0.1,0.8,0.4,1,0.8l1.8,3.4c0.4,0.7,0.2,1.5-0.4,2
			l-1.3,1c0.6,1.1,1.2,1.9,2.2,2.9c1,1,1.8,1.6,2.8,2.1l1-1.3c0.5-0.6,1.4-0.8,2-0.4l3.5,1.8c0.4,0.2,0.7,0.6,0.8,1
			c0.1,0.4,0,0.9-0.2,1.3l-1.5,2.2C24.3,25.1,23.6,25.5,22.9,25.5z M12.6,8.5c-0.1,0-0.3,0-0.4,0.1L10,10.1
			c-0.4,0.2-0.6,0.7-0.6,1.1c0,0.5,0.1,1.3,0.3,1.9c0.6,2.4,2.1,4.9,4.2,7s4.6,3.6,7,4.2c0.5,0.1,1.3,0.2,1.9,0.3
			c0.5,0,0.9-0.2,1.1-0.6l0,0l1.4-2.2c0.1-0.2,0.1-0.4,0.1-0.6c0-0.2-0.2-0.3-0.3-0.4L21.7,19c-0.3-0.2-0.7-0.1-0.9,0.2l-1.5,1.9
			L19,20.9c-1.2-0.6-2.2-1.3-3.4-2.5c-1.2-1.2-1.8-2.1-2.5-3.4l-0.2-0.3l1.9-1.5c0.2-0.2,0.3-0.6,0.2-0.9l-1.8-3.5
			c-0.1-0.2-0.2-0.3-0.4-0.3C12.7,8.5,12.7,8.5,12.6,8.5z"/>
	</g>
</g>
<g id="phone-onHover" class="st3">
	<g class="st5">
		<circle class="st0" cx="17" cy="17" r="16"/>
		<path class="st7" d="M17,33.5C7.9,33.5,0.5,26.1,0.5,17S7.9,0.5,17,0.5S33.5,7.9,33.5,17S26.1,33.5,17,33.5z M17,1.5
			C8.5,1.5,1.5,8.5,1.5,17s7,15.5,15.5,15.5s15.5-7,15.5-15.5S25.5,1.5,17,1.5z"/>
	</g>
	<path class="st8" d="M24.4,24.2C24,24.7,23.4,25,22.8,25c-0.6,0-1.4-0.1-2-0.3c-2.5-0.6-5-2.2-7.2-4.3c-2.2-2.2-3.7-4.7-4.3-7.2
		c-0.1-0.6-0.2-1.3-0.3-2c0-0.6,0.3-1.2,0.8-1.5L12,8.2c0.6-0.4,1.3-0.2,1.6,0.4l1.8,3.5c0.3,0.5,0.1,1.1-0.3,1.4l-1.6,1.3
		c0.6,1.2,1.3,2.2,2.4,3.3c1.1,1.1,2,1.7,3.3,2.4l1.3-1.6c0.3-0.4,0.9-0.6,1.4-0.3l3.5,1.8c0.6,0.3,0.8,1.1,0.4,1.6L24.4,24.2z"/>
</g>
<g id="remove" class="st3">
	<g class="st5">
		<circle class="st0" cx="17" cy="17" r="16"/>
		<path class="st6" d="M17,33.5C7.9,33.5,0.5,26.1,0.5,17S7.9,0.5,17,0.5S33.5,7.9,33.5,17S26.1,33.5,17,33.5z M17,1.5
			C8.5,1.5,1.5,8.5,1.5,17s7,15.5,15.5,15.5s15.5-7,15.5-15.5S25.5,1.5,17,1.5z"/>
	</g>
	<g id="Слой_8" class="st5">
		<path class="st6" d="M25.1,10.5H8.9c-0.3,0-0.5-0.2-0.5-0.5s0.2-0.5,0.5-0.5h16.2c0.3,0,0.5,0.2,0.5,0.5S25.4,10.5,25.1,10.5z"/>
		<path class="st6" d="M22.1,27.8H11.9c-1,0-1.9-0.9-2-2l-1-13.6c0-0.3,0.2-0.6,0.5-0.6c0.3,0,0.6,0.2,0.6,0.5l1,13.6
			c0,0.5,0.4,1,0.9,1h10.3c0.5,0,0.9-0.4,0.9-1l1-13.6c0-0.3,0.3-0.5,0.6-0.5c0.3,0,0.5,0.3,0.5,0.6l-1,13.6
			C24,26.9,23.2,27.8,22.1,27.8z"/>
		<path class="st6" d="M20.2,10.5c-0.3,0-0.5-0.2-0.5-0.5V8c0-0.4-0.5-0.8-1.1-0.8h-3.2c-0.6,0-1.1,0.3-1.1,0.8l0,1.9
			c0,0.3-0.2,0.5-0.5,0.5c0,0,0,0,0,0c-0.3,0-0.5-0.2-0.5-0.5l0-2c0-1,1-1.8,2.2-1.8h3.2c1.2,0,2.2,0.8,2.2,1.8V10
			C20.8,10.3,20.5,10.5,20.2,10.5z"/>
		<path class="st6" d="M14,24.6c-0.3,0-0.5-0.2-0.5-0.5L13,13.3c0-0.3,0.2-0.6,0.5-0.6c0.3,0,0.6,0.2,0.6,0.5L14.6,24
			C14.6,24.3,14.4,24.5,14,24.6C14.1,24.6,14,24.6,14,24.6z"/>
		<path class="st6" d="M20,24.6C20,24.6,19.9,24.6,20,24.6c-0.3,0-0.6-0.3-0.5-0.6L20,13.2c0-0.3,0.2-0.5,0.6-0.5
			c0.3,0,0.5,0.3,0.5,0.6L20.5,24C20.5,24.3,20.3,24.6,20,24.6z"/>
		<path class="st6" d="M17,24.6c-0.3,0-0.5-0.2-0.5-0.5V13.2c0-0.3,0.2-0.5,0.5-0.5s0.5,0.2,0.5,0.5V24C17.5,24.3,17.3,24.6,17,24.6
			z"/>
	</g>
</g>
<g id="remove-onHover" class="st3">
	<g class="st5">
		<circle class="st0" cx="17" cy="17" r="16"/>
		<path class="st7" d="M17,33.5C7.9,33.5,0.5,26.1,0.5,17S7.9,0.5,17,0.5S33.5,7.9,33.5,17S26.1,33.5,17,33.5z M17,1.5
			C8.5,1.5,1.5,8.5,1.5,17s7,15.5,15.5,15.5s15.5-7,15.5-15.5S25.5,1.5,17,1.5z"/>
	</g>
	<g id="Слой_8__x28_копия_x29_" class="st5">
		<path class="st7" d="M25.1,10.5H8.9c-0.3,0-0.5-0.2-0.5-0.5s0.2-0.5,0.5-0.5h16.2c0.3,0,0.5,0.2,0.5,0.5S25.4,10.5,25.1,10.5z"/>
		<path class="st7" d="M24.5,10c-0.2,0-0.3,0.1-0.4,0.2H9.9C9.8,10,9.6,10,9.5,10c-0.3,0-0.5,0.3-0.5,0.6l0.9,15.3
			c0.1,1.1,0.9,2,2,2h10.3c1,0,1.9-0.9,2-2L25,10.5C25.1,10.2,24.8,10,24.5,10z"/>
		<path class="st7" d="M20.2,10.5c-0.3,0-0.5-0.2-0.5-0.5V8c0-0.4-0.5-0.8-1.1-0.8h-3.2c-0.6,0-1.1,0.3-1.1,0.8l0,1.9
			c0,0.3-0.2,0.5-0.5,0.5c0,0,0,0,0,0c-0.3,0-0.5-0.2-0.5-0.5l0-2c0-1,1-1.8,2.2-1.8h3.2c1.2,0,2.2,0.8,2.2,1.8V10
			C20.8,10.3,20.5,10.5,20.2,10.5z"/>
		<path class="st0" d="M14,24.6c-0.3,0-0.5-0.2-0.5-0.5L13,13.3c0-0.3,0.2-0.6,0.5-0.6c0.3,0,0.6,0.2,0.6,0.5L14.6,24
			C14.6,24.3,14.4,24.5,14,24.6C14.1,24.6,14,24.6,14,24.6z"/>
		<path class="st0" d="M20,24.6C20,24.6,19.9,24.6,20,24.6c-0.3,0-0.6-0.3-0.5-0.6L20,13.2c0-0.3,0.2-0.5,0.6-0.5
			c0.3,0,0.5,0.3,0.5,0.6L20.5,24C20.5,24.3,20.3,24.6,20,24.6z"/>
		<path class="st0" d="M17,24.6c-0.3,0-0.5-0.2-0.5-0.5V13.2c0-0.3,0.2-0.5,0.5-0.5s0.5,0.2,0.5,0.5V24C17.5,24.3,17.3,24.6,17,24.6
			z"/>
	</g>
</g>
<g id="check" class="st3">
	<path class="st9" d="M17,0.5C7.9,0.5,0.5,7.9,0.5,17S7.9,33.5,17,33.5S33.5,26.1,33.5,17S26.1,0.5,17,0.5z"/>
	<path class="st10" d="M15.4,23.1c-0.3,0-0.6-0.1-0.8-0.3l-5.5-5.9c-0.2-0.2-0.2-0.6,0-0.8c0.2-0.2,0.6-0.2,0.8,0l5.5,5.9l8.7-9.9
		c0.2-0.2,0.5-0.3,0.8,0c0.2,0.2,0.3,0.5,0,0.8l-8.7,9.9C16,23,15.7,23.1,15.4,23.1C15.4,23.1,15.4,23.1,15.4,23.1z"/>
</g>
<g id="Слой_2__x28_копия10_x29_">
	<path class="st7" d="M17,0.5C7.9,0.5,0.5,7.9,0.5,17S7.9,33.5,17,33.5S33.5,26.1,33.5,17S26.1,0.5,17,0.5z"/>
	<path class="st0" d="M15.4,23.1c-0.3,0-0.6-0.1-0.8-0.3l-5.5-5.9c-0.2-0.2-0.2-0.6,0-0.8c0.2-0.2,0.6-0.2,0.8,0l5.5,5.9l8.7-9.9
		c0.2-0.2,0.5-0.3,0.8,0c0.2,0.2,0.3,0.5,0,0.8l-8.7,9.9C16,23,15.7,23.1,15.4,23.1C15.4,23.1,15.4,23.1,15.4,23.1z"/>
</g>
<g id="push" class="st3">
	<circle class="st11" cx="17" cy="17" r="16"/>
	<path class="st9" d="M17.1,17.3c1.6,0,2.9-1.3,2.9-2.9c0-1.6-1.3-2.9-2.9-2.9s-2.9,1.3-2.9,2.9S15.5,17.3,17.1,17.3z M17.1,12.5
		c1,0,1.9,0.8,1.9,1.9s-0.8,1.9-1.9,1.9s-1.9-0.8-1.9-1.9S16,12.5,17.1,12.5z"/>
	<path class="st9" d="M12.2,21.3c0.5,0.9,1.1,1.9,1.8,3l0.4-0.3l-0.4,0.3c0.8,1.2,1.5,2,1.6,2c0.4,0.4,1,0.7,1.6,0.7c0,0,0,0,0,0
		c0.6,0,1.2-0.2,1.6-0.7c0,0,0.7-0.8,1.5-1.9h0c0.6-0.9,1.1-1.8,1.6-2.6l0,0c1.6-2.9,2.3-5.2,2.3-7.5c0-3.6-3.2-6.7-6.9-6.7
		s-6.9,3.1-6.9,6.7C10.1,16.5,10.8,18.6,12.2,21.3L12.2,21.3z M11.1,14.3c0-3.1,2.7-5.7,5.9-5.7c3.2,0,5.9,2.6,5.9,5.7
		c0,2.2-0.7,4.3-2.2,7.1l0.4,0.2l-0.4-0.2c-0.4,0.8-0.9,1.6-1.5,2.5l0.4,0.3l-0.4-0.3c-0.7,1.1-1.4,1.8-1.4,1.8
		c-0.2,0.2-0.5,0.4-0.9,0.4c0,0,0,0,0,0c-0.3,0-0.6-0.1-0.9-0.4c0,0-0.7-0.8-1.4-1.9l0,0c-0.7-1.1-1.3-2-1.7-2.9l-0.4,0.2l0.4-0.2
		C11.7,18.3,11.1,16.3,11.1,14.3z"/>
</g>
<g id="Слой_2__x28_копия8_x29_" class="st3">
	<circle class="st12" cx="17" cy="17" r="16"/>
	<g id="Слой_8__x28_копия2_x29_" class="st5">
		<path class="st7" d="M12.2,21.3c0.5,0.9,1.1,1.9,1.8,3l0.4-0.3l-0.4,0.3c0.8,1.2,1.5,2,1.6,2c0.4,0.4,1,0.7,1.6,0.7c0,0,0,0,0,0
			c0.6,0,1.2-0.2,1.6-0.7c0,0,0.7-0.8,1.5-1.9h0c0.6-0.9,1.1-1.8,1.6-2.6l0,0c1.6-2.9,2.3-5.2,2.3-7.5c0-3.6-3.2-6.7-6.9-6.7
			s-6.9,3.1-6.9,6.7C10.1,16.5,10.8,18.6,12.2,21.3L12.2,21.3z M15,14c0-2,1-2,2-2s2-1.1,2,2c0,2.2-1.7,2-2,2c0,0,0,0,0,0
			C16.7,16,15,16,15,14z"/>
		<g id="Слой_18">
			<circle class="st0" cx="17" cy="14" r="2.5"/>
		</g>
	</g>
	<g id="Слой_17" class="st5">
	</g>
</g>
</svg>
