<?xml version="1.0" encoding="utf-8"?>
<!-- Generator: Adobe Illustrator 21.0.0, SVG Export Plug-In . SVG Version: 6.00 Build 0)  -->
<svg version="1.1" xmlns="http://www.w3.org/2000/svg" xmlns:xlink="http://www.w3.org/1999/xlink" x="0px" y="0px"
	 viewBox="0 0 20 20" style="enable-background:new 0 0 20 20;" xml:space="preserve">
<style type="text/css">
	.st0{display:none;}
	.st1{display:inline;}
	.st2{fill:#FFFFFF;}
	.st3{fill:#AEAEAE;}
	.st4{fill:#00995D;}
	.st5{display:inline;fill:#00995D;}
	.st6{display:inline;fill:#00C678;}
	.st7{display:inline;fill:#FFFFFF;}
	.st8{fill:#00C678;}
	.st9{display:inline;fill:#FFFFFF;stroke:#00995D;stroke-miterlimit:10;}
	.st10{display:inline;fill:#AEAEAE;}
</style>
<g id="phone" class="st0">
	<g class="st1">
		<circle class="st2" cx="10" cy="11" r="16"/>
		<path class="st3" d="M10,27.5C0.9,27.5-6.5,20.1-6.5,11S0.9-5.5,10-5.5S26.5,1.9,26.5,11S19.1,27.5,10,27.5z M10-4.5
			C1.5-4.5-5.5,2.5-5.5,11s7,15.5,15.5,15.5s15.5-7,15.5-15.5S18.5-4.5,10-4.5z"/>
	</g>
	<g class="st1">
		<path class="st2" d="M17.4,18.2C17,18.7,16.4,19,15.8,19c-0.6,0-1.4-0.1-2-0.3c-2.5-0.6-5-2.2-7.2-4.3c-2.2-2.2-3.7-4.7-4.3-7.2
			C2.1,6.6,2.1,5.8,2,5.2C2,4.6,2.3,4,2.8,3.7L5,2.2C5.5,1.8,6.3,2,6.6,2.6l1.8,3.5c0.3,0.5,0.1,1.1-0.3,1.4L6.5,8.8
			c0.6,1.2,1.3,2.2,2.4,3.3c1.1,1.1,2,1.7,3.3,2.4l1.3-1.6c0.3-0.4,0.9-0.6,1.4-0.3l3.5,1.8c0.6,0.3,0.8,1.1,0.4,1.6L17.4,18.2z"/>
		<path class="st3" d="M15.9,19.5c0,0-0.1,0-0.1,0c-0.3,0-1.3-0.1-2.1-0.3c-2.6-0.7-5.2-2.3-7.4-4.5c-2.2-2.2-3.8-4.8-4.5-7.4
			C1.7,6.7,1.6,6,1.5,5.3c0-0.8,0.3-1.5,1-2l2.2-1.5C5.1,1.6,5.6,1.5,6,1.6C6.5,1.7,6.8,2,7,2.4l1.8,3.4c0.4,0.7,0.2,1.5-0.4,2
			l-1.3,1c0.6,1.1,1.2,1.9,2.2,2.9c1,1,1.8,1.6,2.8,2.1l1-1.3c0.5-0.6,1.4-0.8,2-0.4l3.5,1.8c0.4,0.2,0.7,0.6,0.8,1
			c0.1,0.4,0,0.9-0.2,1.3l-1.5,2.2C17.3,19.1,16.6,19.5,15.9,19.5z M5.6,2.5c-0.1,0-0.3,0-0.4,0.1L3,4.1C2.7,4.3,2.4,4.7,2.5,5.2
			c0,0.5,0.1,1.3,0.3,1.9c0.6,2.4,2.1,4.9,4.2,7s4.6,3.6,7,4.2c0.5,0.1,1.3,0.2,1.9,0.3c0.5,0,0.9-0.2,1.1-0.6l0,0l1.4-2.2
			c0.1-0.2,0.1-0.4,0.1-0.6c0-0.2-0.2-0.3-0.3-0.4L14.7,13c-0.3-0.2-0.7-0.1-0.9,0.2l-1.5,1.9L12,14.9c-1.2-0.6-2.2-1.3-3.4-2.5
			C7.4,11.3,6.8,10.3,6.1,9L5.9,8.7l1.9-1.5C8.1,7,8.1,6.6,8,6.3L6.2,2.9C6.1,2.7,6,2.6,5.8,2.5C5.7,2.5,5.7,2.5,5.6,2.5z"/>
	</g>
</g>
<g id="phone-onHover" class="st0">
	<g class="st1">
		<circle class="st2" cx="10" cy="11" r="16"/>
		<path class="st4" d="M10,27.5C0.9,27.5-6.5,20.1-6.5,11S0.9-5.5,10-5.5S26.5,1.9,26.5,11S19.1,27.5,10,27.5z M10-4.5
			C1.5-4.5-5.5,2.5-5.5,11s7,15.5,15.5,15.5s15.5-7,15.5-15.5S18.5-4.5,10-4.5z"/>
	</g>
	<path class="st5" d="M17.4,18.2C17,18.7,16.4,19,15.8,19c-0.6,0-1.4-0.1-2-0.3c-2.5-0.6-5-2.2-7.2-4.3c-2.2-2.2-3.7-4.7-4.3-7.2
		C2.1,6.6,2.1,5.8,2,5.2C2,4.6,2.3,4,2.8,3.7L5,2.2C5.5,1.8,6.3,2,6.6,2.6l1.8,3.5c0.3,0.5,0.1,1.1-0.3,1.4L6.5,8.8
		c0.6,1.2,1.3,2.2,2.4,3.3c1.1,1.1,2,1.7,3.3,2.4l1.3-1.6c0.3-0.4,0.9-0.6,1.4-0.3l3.5,1.8c0.6,0.3,0.8,1.1,0.4,1.6L17.4,18.2z"/>
</g>
<g id="remove" class="st0">
	<g class="st1">
		<circle class="st2" cx="10" cy="11" r="16"/>
		<path class="st3" d="M10,27.5C0.9,27.5-6.5,20.1-6.5,11S0.9-5.5,10-5.5S26.5,1.9,26.5,11S19.1,27.5,10,27.5z M10-4.5
			C1.5-4.5-5.5,2.5-5.5,11s7,15.5,15.5,15.5s15.5-7,15.5-15.5S18.5-4.5,10-4.5z"/>
	</g>
	<g id="Слой_8" class="st1">
		<path class="st3" d="M18.1,4.5H1.9C1.6,4.5,1.4,4.3,1.4,4s0.2-0.5,0.5-0.5h16.2c0.3,0,0.5,0.2,0.5,0.5S18.4,4.5,18.1,4.5z"/>
		<path class="st3" d="M15.1,21.8H4.9c-1,0-1.9-0.9-2-2l-1-13.6c0-0.3,0.2-0.6,0.5-0.6C2.7,5.6,3,5.8,3,6.1l1,13.6
			c0,0.5,0.4,1,0.9,1h10.3c0.5,0,0.9-0.4,0.9-1l1-13.6c0-0.3,0.3-0.5,0.6-0.5c0.3,0,0.5,0.3,0.5,0.6l-1,13.6
			C17,20.9,16.2,21.8,15.1,21.8z"/>
		<path class="st3" d="M13.2,4.5c-0.3,0-0.5-0.2-0.5-0.5V2c0-0.4-0.5-0.8-1.1-0.8H8.4C7.8,1.3,7.3,1.6,7.3,2l0,1.9
			c0,0.3-0.2,0.5-0.5,0.5c0,0,0,0,0,0C6.5,4.5,6.2,4.3,6.2,4l0-2c0-1,1-1.8,2.2-1.8h3.2c1.2,0,2.2,0.8,2.2,1.8V4
			C13.8,4.3,13.5,4.5,13.2,4.5z"/>
		<path class="st3" d="M7,18.6c-0.3,0-0.5-0.2-0.5-0.5L6,7.3c0-0.3,0.2-0.6,0.5-0.6C6.8,6.7,7,6.9,7,7.2L7.6,18
			C7.6,18.3,7.4,18.5,7,18.6C7.1,18.6,7,18.6,7,18.6z"/>
		<path class="st3" d="M13,18.6C13,18.6,12.9,18.6,13,18.6c-0.3,0-0.6-0.3-0.5-0.6L13,7.2c0-0.3,0.2-0.5,0.6-0.5
			c0.3,0,0.5,0.3,0.5,0.6L13.5,18C13.5,18.3,13.3,18.6,13,18.6z"/>
		<path class="st3" d="M10,18.6c-0.3,0-0.5-0.2-0.5-0.5V7.2c0-0.3,0.2-0.5,0.5-0.5s0.5,0.2,0.5,0.5V18C10.5,18.3,10.3,18.6,10,18.6z
			"/>
	</g>
</g>
<g id="remove-onHover" class="st0">
	<g class="st1">
		<circle class="st2" cx="10" cy="11" r="16"/>
		<path class="st4" d="M10,27.5C0.9,27.5-6.5,20.1-6.5,11S0.9-5.5,10-5.5S26.5,1.9,26.5,11S19.1,27.5,10,27.5z M10-4.5
			C1.5-4.5-5.5,2.5-5.5,11s7,15.5,15.5,15.5s15.5-7,15.5-15.5S18.5-4.5,10-4.5z"/>
	</g>
	<g id="Слой_8__x28_копия_x29_" class="st1">
		<path class="st4" d="M18.1,4.5H1.9C1.6,4.5,1.4,4.3,1.4,4s0.2-0.5,0.5-0.5h16.2c0.3,0,0.5,0.2,0.5,0.5S18.4,4.5,18.1,4.5z"/>
		<path class="st4" d="M17.5,4c-0.2,0-0.3,0.1-0.4,0.2H2.9C2.8,4,2.6,4,2.5,4C2.2,4,1.9,4.2,2,4.5l0.9,15.3c0.1,1.1,0.9,2,2,2h10.3
			c1,0,1.9-0.9,2-2L18,4.5C18.1,4.2,17.8,4,17.5,4z"/>
		<path class="st4" d="M13.2,4.5c-0.3,0-0.5-0.2-0.5-0.5V2c0-0.4-0.5-0.8-1.1-0.8H8.4C7.8,1.3,7.3,1.6,7.3,2l0,1.9
			c0,0.3-0.2,0.5-0.5,0.5c0,0,0,0,0,0C6.5,4.5,6.2,4.3,6.2,4l0-2c0-1,1-1.8,2.2-1.8h3.2c1.2,0,2.2,0.8,2.2,1.8V4
			C13.8,4.3,13.5,4.5,13.2,4.5z"/>
		<path class="st2" d="M7,18.6c-0.3,0-0.5-0.2-0.5-0.5L6,7.3c0-0.3,0.2-0.6,0.5-0.6C6.8,6.7,7,6.9,7,7.2L7.6,18
			C7.6,18.3,7.4,18.5,7,18.6C7.1,18.6,7,18.6,7,18.6z"/>
		<path class="st2" d="M13,18.6C13,18.6,12.9,18.6,13,18.6c-0.3,0-0.6-0.3-0.5-0.6L13,7.2c0-0.3,0.2-0.5,0.6-0.5
			c0.3,0,0.5,0.3,0.5,0.6L13.5,18C13.5,18.3,13.3,18.6,13,18.6z"/>
		<path class="st2" d="M10,18.6c-0.3,0-0.5-0.2-0.5-0.5V7.2c0-0.3,0.2-0.5,0.5-0.5s0.5,0.2,0.5,0.5V18C10.5,18.3,10.3,18.6,10,18.6z
			"/>
	</g>
</g>
<g id="check" class="st0">
	<path class="st6" d="M10-5.5C0.9-5.5-6.5,1.9-6.5,11S0.9,27.5,10,27.5S26.5,20.1,26.5,11S19.1-5.5,10-5.5z"/>
	<path class="st7" d="M8.4,17.1c-0.3,0-0.6-0.1-0.8-0.3l-5.5-5.9c-0.2-0.2-0.2-0.6,0-0.8c0.2-0.2,0.6-0.2,0.8,0L8.4,16l8.7-9.9
		c0.2-0.2,0.5-0.3,0.8,0c0.2,0.2,0.3,0.5,0,0.8l-8.7,9.9C9,17,8.7,17.1,8.4,17.1C8.4,17.1,8.4,17.1,8.4,17.1z"/>
</g>
<g id="check-onHover" class="st0">
	<path class="st5" d="M10-5.5C0.9-5.5-6.5,1.9-6.5,11S0.9,27.5,10,27.5S26.5,20.1,26.5,11S19.1-5.5,10-5.5z"/>
	<path class="st7" d="M8.4,17.1c-0.3,0-0.6-0.1-0.8-0.3l-5.5-5.9c-0.2-0.2-0.2-0.6,0-0.8c0.2-0.2,0.6-0.2,0.8,0L8.4,16l8.7-9.9
		c0.2-0.2,0.5-0.3,0.8,0c0.2,0.2,0.3,0.5,0,0.8l-8.7,9.9C9,17,8.7,17.1,8.4,17.1C8.4,17.1,8.4,17.1,8.4,17.1z"/>
</g>
<g id="push" class="st0">
	<g class="st1">
		<circle class="st2" cx="10" cy="11" r="16"/>
		<path class="st8" d="M10,27.5C0.9,27.5-6.5,20.1-6.5,11S0.9-5.5,10-5.5S26.5,1.9,26.5,11S19.1,27.5,10,27.5z M10-4.5
			C1.5-4.5-5.5,2.5-5.5,11s7,15.5,15.5,15.5s15.5-7,15.5-15.5S18.5-4.5,10-4.5z"/>
	</g>
	<path class="st6" d="M10.1,11.3c1.6,0,2.9-1.3,2.9-2.9c0-1.6-1.3-2.9-2.9-2.9S7.2,6.8,7.2,8.4S8.5,11.3,10.1,11.3z M10.1,6.5
		c1,0,1.9,0.8,1.9,1.9s-0.8,1.9-1.9,1.9S8.2,9.4,8.2,8.4S9,6.5,10.1,6.5z"/>
	<path class="st6" d="M5.2,15.3c0.5,0.9,1.1,1.9,1.8,3L7.3,18l-0.4,0.3c0.8,1.2,1.5,2,1.6,2c0.4,0.4,1,0.7,1.6,0.7c0,0,0,0,0,0
		c0.6,0,1.2-0.2,1.6-0.7c0,0,0.7-0.8,1.5-1.9h0c0.6-0.9,1.1-1.8,1.6-2.6l0,0c1.6-2.9,2.3-5.2,2.3-7.5c0-3.6-3.2-6.7-6.9-6.7
		S3.1,4.6,3.1,8.3C3.1,10.5,3.8,12.6,5.2,15.3L5.2,15.3z M4.1,8.3c0-3.1,2.7-5.7,5.9-5.7c3.2,0,5.9,2.6,5.9,5.7
		c0,2.2-0.7,4.3-2.2,7.1l0.4,0.2l-0.4-0.2c-0.4,0.8-0.9,1.6-1.5,2.5l0.4,0.3l-0.4-0.3c-0.7,1.1-1.4,1.8-1.4,1.8
		c-0.2,0.2-0.5,0.4-0.9,0.4c0,0,0,0,0,0c-0.3,0-0.6-0.1-0.9-0.4c0,0-0.7-0.8-1.4-1.9l0,0c-0.7-1.1-1.3-2-1.7-2.9l-0.4,0.2L6,14.8
		C4.7,12.3,4.1,10.3,4.1,8.3z"/>
</g>
<g id="push-onHover" class="st0">
	<circle class="st9" cx="10" cy="11" r="16"/>
	<g id="Слой_8__x28_копия2_x29_" class="st1">
		<path class="st4" d="M10.1,1.6c-3.8,0-6.9,3.1-6.9,6.7c0,2.2,0.6,4.4,2,7c0.5,0.9,1.1,1.9,1.8,3L7.3,18l-0.4,0.3
			c0.8,1.2,1.5,2,1.6,2c0.4,0.4,1,0.7,1.6,0.7c0,0,0,0,0,0c0.6,0,1.2-0.2,1.6-0.7c0,0,0.7-0.8,1.5-1.9h0c0.6-0.9,1.1-1.8,1.6-2.6
			c1.6-2.9,2.3-5.2,2.3-7.5C17,4.6,13.8,1.6,10.1,1.6z M10,10.5c-1.4,0-2.5-1.1-2.5-2.5c0-1.4,1.1-2.5,2.5-2.5s2.5,1.1,2.5,2.5
			C12.5,9.4,11.4,10.5,10,10.5z"/>
	</g>
</g>
<g id="close" class="st0">
	<g class="st1">
		<circle class="st2" cx="10" cy="11" r="16"/>
		<path class="st3" d="M10,27.5C0.9,27.5-6.5,20.1-6.5,11S0.9-5.5,10-5.5S26.5,1.9,26.5,11S19.1,27.5,10,27.5z M10-4.5
			C1.5-4.5-5.5,2.5-5.5,11s7,15.5,15.5,15.5s15.5-7,15.5-15.5S18.5-4.5,10-4.5z"/>
	</g>
	<g class="st1">
		<path class="st3" d="M17,18.5c-0.1,0-0.3,0-0.4-0.1L3,4.9C2.8,4.7,2.8,4.4,3,4.2C3.2,4,3.5,4,3.7,4.2l13.6,13.4
			c0.2,0.2,0.2,0.5,0,0.7C17.3,18.5,17.1,18.5,17,18.5z"/>
		<path class="st3" d="M3.4,18.5c-0.1,0-0.3,0-0.4-0.1c-0.2-0.2-0.2-0.5,0-0.7L16.6,4.2c0.2-0.2,0.5-0.2,0.7,0
			c0.2,0.2,0.2,0.5,0,0.7L3.7,18.4C3.6,18.5,3.5,18.5,3.4,18.5z"/>
	</g>
</g>
<g id="close-onHover" class="st0">
	<g class="st1">
		<circle class="st2" cx="10" cy="11" r="16"/>
		<path class="st4" d="M10,27.5C0.9,27.5-6.5,20.1-6.5,11S0.9-5.5,10-5.5S26.5,1.9,26.5,11S19.1,27.5,10,27.5z M10-4.5
			C1.5-4.5-5.5,2.5-5.5,11s7,15.5,15.5,15.5s15.5-7,15.5-15.5S18.5-4.5,10-4.5z"/>
	</g>
	<g class="st1">
		<path class="st4" d="M17,18.5c-0.1,0-0.3,0-0.4-0.1L3,4.9C2.8,4.7,2.8,4.4,3,4.2C3.2,4,3.5,4,3.7,4.2l13.6,13.4
			c0.2,0.2,0.2,0.5,0,0.7C17.3,18.5,17.1,18.5,17,18.5z"/>
		<path class="st4" d="M3.4,18.5c-0.1,0-0.3,0-0.4-0.1c-0.2-0.2-0.2-0.5,0-0.7L16.6,4.2c0.2-0.2,0.5-0.2,0.7,0
			c0.2,0.2,0.2,0.5,0,0.7L3.7,18.4C3.6,18.5,3.5,18.5,3.4,18.5z"/>
	</g>
</g>
<g id="calendar" class="st0">
	<path class="st10" d="M17,20H3c-1.4,0-2.5-1.1-2.5-2.5v-13C0.5,3.1,1.6,2,3,2h14c1.4,0,2.5,1.1,2.5,2.5v13C19.5,18.9,18.4,20,17,20
		z M3,3C2.2,3,1.5,3.7,1.5,4.5v13C1.5,18.3,2.2,19,3,19h14c0.8,0,1.5-0.7,1.5-1.5v-13C18.5,3.7,17.8,3,17,3H3z"/>
	<path class="st10" d="M5.8,4C5.5,4,5.3,3.8,5.3,3.5v-3C5.3,0.2,5.5,0,5.8,0s0.5,0.2,0.5,0.5v3C6.3,3.8,6,4,5.8,4z"/>
	<path class="st10" d="M14.3,4c-0.3,0-0.5-0.2-0.5-0.5v-3C13.8,0.2,14,0,14.3,0s0.5,0.2,0.5,0.5v3C14.8,3.8,14.5,4,14.3,4z"/>
	<path class="st10" d="M18.5,7H1C0.7,7,0.5,6.8,0.5,6.5S0.7,6,1,6h17.5C18.8,6,19,6.2,19,6.5S18.8,7,18.5,7z"/>
</g>
<g id="calendar-onHover" class="st0">
	<path class="st5" d="M17,20H3c-1.4,0-2.5-1.1-2.5-2.5v-13C0.5,3.1,1.6,2,3,2h14c1.4,0,2.5,1.1,2.5,2.5v13C19.5,18.9,18.4,20,17,20z
		 M3,3C2.2,3,1.5,3.7,1.5,4.5v13C1.5,18.3,2.2,19,3,19h14c0.8,0,1.5-0.7,1.5-1.5v-13C18.5,3.7,17.8,3,17,3H3z"/>
	<path class="st5" d="M5.8,4C5.5,4,5.3,3.8,5.3,3.5v-3C5.3,0.2,5.5,0,5.8,0s0.5,0.2,0.5,0.5v3C6.3,3.8,6,4,5.8,4z"/>
	<path class="st5" d="M14.3,4c-0.3,0-0.5-0.2-0.5-0.5v-3C13.8,0.2,14,0,14.3,0s0.5,0.2,0.5,0.5v3C14.8,3.8,14.5,4,14.3,4z"/>
	<path class="st5" d="M18.5,7H1C0.7,7,0.5,6.8,0.5,6.5S0.7,6,1,6h17.5C18.8,6,19,6.2,19,6.5S18.8,7,18.5,7z"/>
</g>
<g id="ckock">
	<path class="st3" d="M10,1c5,0,9,4,9,9c0,5-4,9-9,9c-5,0-9-4-9-9C1,5,5,1,10,1 M10,20c5.5,0,10-4.5,10-10c0-5.5-4.5-10-10-10
		C4.5,0,0,4.5,0,10C0,15.5,4.5,20,10,20z"/>
	<path class="st3" d="M9.8,10.5C9.4,10.5,9,10.1,9,9.7V4c0-0.3,0.2-0.5,0.5-0.5S10,3.7,10,4v5.5c0.2,0.1,0.3,0.3,0.3,0.5
		C10.3,10.3,10.1,10.5,9.8,10.5z"/>
	<path class="st3" d="M16,10.5h-6c-0.3,0-0.5-0.2-0.5-0.5S9.7,9.5,10,9.5h6c0.3,0,0.5,0.2,0.5,0.5S16.3,10.5,16,10.5z"/>
</g>
</svg>
