<?xml version="1.0" encoding="utf-8"?>
<!-- Generator: Adobe Illustrator 21.0.0, SVG Export Plug-In . SVG Version: 6.00 Build 0)  -->
<svg version="1.1" id="Слой_1" xmlns="http://www.w3.org/2000/svg" xmlns:xlink="http://www.w3.org/1999/xlink" x="0px" y="0px"
	 viewBox="0 0 23 16" style="enable-background:new 0 0 23 16;" xml:space="preserve">
<style type="text/css">
	.st0{fill:#AEAEAE;}
</style>
<path class="st0" d="M20.8,16H2.2C1,16,0,15,0,13.8V2.2C0,1,1,0,2.2,0h18.6C22,0,23,1,23,2.2v11.6C23,15,22,16,20.8,16z M2.2,1
	C1.5,1,1,1.5,1,2.2v11.6C1,14.5,1.5,15,2.2,15h18.6c0.7,0,1.2-0.5,1.2-1.2V2.2C22,1.5,21.5,1,20.8,1H2.2z"/>
<polygon class="st0" points="11.5,9.1 0.4,2 0.9,1.2 11.5,7.9 22.2,1.1 22.8,1.9 "/>
</svg>
