<?xml version="1.0" encoding="utf-8"?>
<!-- Generator: Adobe Illustrator 21.0.0, SVG Export Plug-In . SVG Version: 6.00 Build 0)  -->
<svg version="1.1" id="Слой_1" xmlns="http://www.w3.org/2000/svg" xmlns:xlink="http://www.w3.org/1999/xlink" x="0px" y="0px"
	 viewBox="0 0 31 24" style="enable-background:new 0 0 31 24;" xml:space="preserve">
<style type="text/css">
	.st0{fill:#AEAEAE;}
	.st1{fill:#F4160E;stroke:#FFFFFF;stroke-width:0.9706;stroke-miterlimit:10;}
</style>
<path class="st0" d="M20.8,24H2.2C1,24,0,23,0,21.8V10.2C0,9,1,8,2.2,8h18.6C22,8,23,9,23,10.2v11.6C23,23,22,24,20.8,24z M2.2,9
	C1.5,9,1,9.5,1,10.2v11.6C1,22.4,1.5,23,2.2,23h18.6c0.7,0,1.2-0.5,1.2-1.2V10.2C22,9.5,21.5,9,20.8,9H2.2z"/>
<polygon class="st0" points="11.5,17.1 0.4,10 0.9,9.2 11.5,15.9 22.2,9.1 22.8,9.9 "/>
<circle class="st1" cx="22.3" cy="8.7" r="8.3"/>
</svg>
