<?xml version="1.0" encoding="utf-8"?>
<!-- Generator: Adobe Illustrator 21.0.0, SVG Export Plug-In . SVG Version: 6.00 Build 0)  -->
<svg version="1.1" id="Слой_1" xmlns="http://www.w3.org/2000/svg" xmlns:xlink="http://www.w3.org/1999/xlink" x="0px" y="0px"
	 viewBox="0 0 33 33" style="enable-background:new 0 0 33 33;" xml:space="preserve">
<style type="text/css">
	.st0{fill:#FFFFFF;}
	.st1{fill:#00995D;}
</style>
<g>
	<circle class="st0" cx="16.5" cy="16.5" r="16"/>
	<path class="st1" d="M16.5,33C7.4,33,0,25.6,0,16.5S7.4,0,16.5,0S33,7.4,33,16.5S25.6,33,16.5,33z M16.5,1C8,1,1,8,1,16.5
		S8,32,16.5,32S32,25,32,16.5S25,1,16.5,1z"/>
</g>
<path class="st1" d="M23.9,23.7c-0.3,0.5-0.9,0.8-1.6,0.8c-0.6,0-1.4-0.1-2-0.3c-2.5-0.6-5-2.2-7.2-4.3c-2.2-2.2-3.7-4.7-4.3-7.2
	c-0.1-0.6-0.2-1.3-0.3-2c0-0.6,0.3-1.2,0.8-1.5l2.2-1.5c0.6-0.4,1.3-0.2,1.6,0.4l1.8,3.5c0.3,0.5,0.1,1.1-0.3,1.4L13,14.3
	c0.6,1.2,1.3,2.2,2.4,3.3c1.1,1.1,2,1.7,3.3,2.4l1.3-1.6c0.3-0.4,0.9-0.6,1.4-0.3l3.5,1.8c0.6,0.3,0.8,1.1,0.4,1.6L23.9,23.7z"/>
</svg>
