<?xml version="1.0" encoding="utf-8"?>
<!-- Generator: Adobe Illustrator 21.0.0, SVG Export Plug-In . SVG Version: 6.00 Build 0)  -->
<svg version="1.1" id="Слой_1" xmlns="http://www.w3.org/2000/svg" xmlns:xlink="http://www.w3.org/1999/xlink" x="0px" y="0px"
	 viewBox="0 0 33 33" style="enable-background:new 0 0 33 33;" xml:space="preserve">
<style type="text/css">
	.st0{fill:#FFFFFF;}
	.st1{fill:#AEAEAE;}
</style>
<g>
	<circle class="st0" cx="16.5" cy="16.5" r="16"/>
	<path class="st1" d="M16.5,33C7.4,33,0,25.6,0,16.5S7.4,0,16.5,0S33,7.4,33,16.5S25.6,33,16.5,33z M16.5,1C8,1,1,8,1,16.5
		S8,32,16.5,32S32,25,32,16.5S25,1,16.5,1z"/>
</g>
<g>
	<path class="st0" d="M23.9,23.7c-0.3,0.5-0.9,0.8-1.6,0.8c-0.6,0-1.4-0.1-2-0.3c-2.5-0.6-5-2.2-7.2-4.3c-2.2-2.2-3.7-4.7-4.3-7.2
		c-0.1-0.6-0.2-1.3-0.3-2c0-0.6,0.3-1.2,0.8-1.5l2.2-1.5c0.6-0.4,1.3-0.2,1.6,0.4l1.8,3.5c0.3,0.5,0.1,1.1-0.3,1.4L13,14.3
		c0.6,1.2,1.3,2.2,2.4,3.3c1.1,1.1,2,1.7,3.3,2.4l1.3-1.6c0.3-0.4,0.9-0.6,1.4-0.3l3.5,1.8c0.6,0.3,0.8,1.1,0.4,1.6L23.9,23.7z"/>
	<path class="st1" d="M22.4,25c0,0-0.1,0-0.1,0c-0.3,0-1.3-0.1-2.1-0.3c-2.6-0.7-5.2-2.3-7.4-4.5C10.6,18,9,15.4,8.3,12.8
		c-0.1-0.6-0.2-1.3-0.3-2c0-0.8,0.3-1.5,1-2l2.2-1.5c0.4-0.3,0.9-0.3,1.3-0.2c0.4,0.1,0.8,0.4,1,0.8l1.8,3.4c0.4,0.7,0.2,1.5-0.4,2
		l-1.3,1c0.6,1.1,1.2,1.9,2.2,2.9c1,1,1.8,1.6,2.8,2.1l1-1.3c0.5-0.6,1.4-0.8,2-0.4l3.5,1.8c0.4,0.2,0.7,0.6,0.8,1
		c0.1,0.4,0,0.9-0.2,1.3L24.2,24C23.8,24.6,23.1,25,22.4,25z M12.1,8c-0.1,0-0.3,0-0.4,0.1L9.5,9.6C9.2,9.8,8.9,10.2,9,10.7
		c0,0.5,0.1,1.3,0.3,1.9c0.6,2.4,2.1,4.9,4.2,7s4.6,3.6,7,4.2c0.5,0.1,1.3,0.2,1.9,0.3c0.5,0,0.9-0.2,1.1-0.6l0,0l1.4-2.2
		c0.1-0.2,0.1-0.4,0.1-0.6c0-0.2-0.2-0.3-0.3-0.4l-3.5-1.8c-0.3-0.2-0.7-0.1-0.9,0.2l-1.5,1.9l-0.3-0.2c-1.2-0.6-2.2-1.3-3.4-2.5
		c-1.2-1.2-1.8-2.1-2.5-3.4l-0.2-0.3l1.9-1.5c0.2-0.2,0.3-0.6,0.2-0.9l-1.8-3.5c-0.1-0.2-0.2-0.3-0.4-0.3C12.2,8,12.2,8,12.1,8z"/>
</g>
</svg>
