<?xml version="1.0" encoding="utf-8"?>
<!-- Generator: Adobe Illustrator 21.0.0, SVG Export Plug-In . SVG Version: 6.00 Build 0)  -->
<svg version="1.1" id="Слой_1" xmlns="http://www.w3.org/2000/svg" xmlns:xlink="http://www.w3.org/1999/xlink" x="0px" y="0px"
	 viewBox="0 0 33 33" style="enable-background:new 0 0 33 33;" xml:space="preserve">
<style type="text/css">
	.st0{fill:#FFFFFF;}
	.st1{fill:#00995D;}
</style>
<g>
	<circle class="st0" cx="16.5" cy="16.5" r="16"/>
	<path class="st1" d="M16.5,33C7.4,33,0,25.6,0,16.5S7.4,0,16.5,0S33,7.4,33,16.5S25.6,33,16.5,33z M16.5,1C8,1,1,8,1,16.5
		S8,32,16.5,32S32,25,32,16.5S25,1,16.5,1z"/>
</g>
<path class="st1" d="M22.2,9.9C20.9,8.1,18.9,7,16.6,7h-0.4C14,7,12,8.1,10.7,9.9C9.2,12.1,9,15,10,17.7c3.1,8,5.9,8.3,6.2,8.3h0.4
	c0.3,0,3.1-0.3,6.2-8.3C23.9,15,23.6,12.1,22.2,9.9z M16.6,16.8c-1.6,0-2.9-1.3-2.9-2.9S15,11,16.6,11s2.9,1.3,2.9,2.9
	C19.4,15.5,18.1,16.8,16.6,16.8z"/>
</svg>
