<?xml version="1.0" encoding="utf-8"?>
<!-- Generator: Adobe Illustrator 21.0.0, SVG Export Plug-In . SVG Version: 6.00 Build 0)  -->
<svg version="1.1" id="Слой_1" xmlns="http://www.w3.org/2000/svg" xmlns:xlink="http://www.w3.org/1999/xlink" x="0px" y="0px"
	 viewBox="0 0 33 33" style="enable-background:new 0 0 33 33;" xml:space="preserve">
<style type="text/css">
	.st0{fill:#FFFFFF;}
	.st1{fill:#00C678;}
</style>
<g>
	<circle class="st0" cx="16.5" cy="16.5" r="16"/>
	<path class="st1" d="M16.5,33C7.4,33,0,25.6,0,16.5S7.4,0,16.5,0S33,7.4,33,16.5S25.6,33,16.5,33z M16.5,1C8,1,1,8,1,16.5
		S8,32,16.5,32S32,25,32,16.5S25,1,16.5,1z"/>
</g>
<path class="st1" d="M16.6,16.8c1.6,0,2.9-1.3,2.9-2.9c0-1.6-1.3-2.9-2.9-2.9s-2.9,1.3-2.9,2.9S15,16.8,16.6,16.8z M16.6,12
	c1,0,1.9,0.8,1.9,1.9s-0.8,1.9-1.9,1.9s-1.9-0.8-1.9-1.9S15.5,12,16.6,12z"/>
<path class="st1" d="M16.3,26c-0.3,0-3.2-0.3-6.2-8.3c-1-2.7-0.8-5.6,0.7-7.8C12,8.1,14,7,16.3,7h0.4c2.3,0,4.3,1.1,5.5,2.9
	c1.5,2.2,1.7,5.1,0.7,7.8c-3.1,8-5.9,8.3-6.2,8.3H16.3z M16.3,8c-2,0-3.6,0.9-4.7,2.5c-1.3,1.9-1.5,4.4-0.6,6.9
	c2.8,7.4,5.3,7.7,5.4,7.7l0.3,0c0,0,2.5-0.3,5.3-7.7c0.9-2.4,0.7-5-0.6-6.9C20.3,8.9,18.6,8,16.6,8H16.3z"/>
</svg>
