<?xml version="1.0" encoding="utf-8"?>
<!-- Generator: Adobe Illustrator 21.0.0, SVG Export Plug-In . SVG Version: 6.00 Build 0)  -->
<svg version="1.1" id="Слой_1" xmlns="http://www.w3.org/2000/svg" xmlns:xlink="http://www.w3.org/1999/xlink" x="0px" y="0px"
	 viewBox="0 0 33 33" style="enable-background:new 0 0 33 33;" xml:space="preserve">
<style type="text/css">
	.st0{fill:#FFFFFF;}
	.st1{fill:#939393;}
</style>
<g>
	<circle class="st0" cx="16.5" cy="16.5" r="16"/>
	<path class="st1" d="M16.5,33C7.4,33,0,25.6,0,16.5S7.4,0,16.5,0S33,7.4,33,16.5S25.6,33,16.5,33z M16.5,1C8,1,1,8,1,16.5
		S8,32,16.5,32S32,25,32,16.5S25,1,16.5,1z"/>
</g>
<path class="st1" d="M24.6,8.9H8.4c-0.3,0-0.5,0.2-0.5,0.5S8.1,10,8.4,10h0.1c0,0,0,0,0,0l0.9,15.3c0.1,1.1,0.9,2,2,2h10.3
	c1,0,1.9-0.9,2-2L24.5,10c0,0,0,0,0,0h0.1c0.3,0,0.5-0.2,0.5-0.5S24.9,8.9,24.6,8.9z"/>
<path class="st1" d="M19.7,10c-0.3,0-0.5-0.2-0.5-0.5V7.5c0-0.4-0.5-0.8-1.1-0.8h-3.2c-0.6,0-1.1,0.3-1.1,0.8l0,1.9
	c0,0.3-0.2,0.5-0.5,0.5c0,0,0,0,0,0c-0.3,0-0.5-0.2-0.5-0.5l0-2c0-1,1-1.8,2.2-1.8h3.2c1.2,0,2.2,0.8,2.2,1.8v1.9
	C20.3,9.8,20,10,19.7,10z"/>
<path class="st0" d="M13.5,24.1c-0.3,0-0.5-0.2-0.5-0.5l-0.5-10.8c0-0.3,0.2-0.6,0.5-0.6c0.3,0,0.6,0.2,0.6,0.5l0.5,10.8
	C14.1,23.8,13.9,24,13.5,24.1C13.6,24.1,13.5,24.1,13.5,24.1z"/>
<path class="st0" d="M19.5,24.1C19.5,24.1,19.4,24.1,19.5,24.1c-0.3,0-0.6-0.3-0.5-0.6l0.5-10.8c0-0.3,0.2-0.5,0.6-0.5
	c0.3,0,0.5,0.3,0.5,0.6L20,23.5C20,23.8,19.8,24.1,19.5,24.1z"/>
<path class="st0" d="M16.5,24.1c-0.3,0-0.5-0.2-0.5-0.5V12.7c0-0.3,0.2-0.5,0.5-0.5s0.5,0.2,0.5,0.5v10.8
	C17,23.8,16.8,24.1,16.5,24.1z"/>
</svg>
